<?xml version="1.0" standalone="no"?>
<!DOCTYPE svg PUBLIC "-//W3C//DTD SVG 20010904//EN"
 "http://www.w3.org/TR/2001/REC-SVG-20010904/DTD/svg10.dtd">
<svg version="1.0" xmlns="http://www.w3.org/2000/svg"
 width="1126.000000pt" height="1126.000000pt" viewBox="0 0 1126.000000 1126.000000"
 preserveAspectRatio="xMidYMid meet">
<metadata>
Created by potrace 1.14, written by Peter Selinger 2001-2017
</metadata>
<g transform="translate(0.000000,1126.000000) scale(0.100000,-0.100000)"
fill="#000000" stroke="none">
<path d="M5395 9970 c3 -6 11 -7 17 -4 6 4 8 3 5 -3 -9 -14 -198 -14 -215 0
-9 7 -16 7 -20 0 -4 -5 -23 -10 -43 -11 -20 -1 -47 -6 -61 -11 -14 -5 -29 -7
-32 -4 -3 4 -6 -1 -6 -10 0 -9 -7 -17 -15 -17 -8 0 -12 -6 -9 -14 7 -19 -15
-31 -48 -27 -16 1 -28 -2 -28 -8 0 -6 -12 -11 -27 -11 -31 1 -90 -8 -113 -17
-8 -3 -41 -6 -72 -7 -31 -1 -60 -4 -64 -8 -4 -5 -20 -8 -35 -8 -15 0 -30 -4
-33 -8 -3 -5 -19 -7 -37 -4 -24 4 -30 2 -24 -8 6 -10 4 -12 -8 -7 -10 3 -17 2
-17 -3 0 -6 -9 -10 -19 -10 -11 0 -22 -4 -26 -9 -3 -6 -15 -8 -26 -6 -11 2
-28 -4 -38 -14 -9 -9 -23 -15 -31 -13 -7 3 -17 -3 -22 -12 -5 -9 -17 -16 -28
-16 -10 0 -25 -7 -34 -15 -8 -8 -18 -15 -23 -15 -5 0 -16 -9 -26 -20 -9 -11
-25 -20 -34 -20 -24 -1 -56 -26 -49 -39 4 -5 -3 -12 -14 -16 -11 -4 -18 -10
-15 -15 3 -5 1 -11 -5 -15 -5 -3 -10 -19 -10 -35 0 -22 -4 -28 -15 -24 -8 4
-15 1 -15 -4 0 -6 -16 -19 -36 -28 -20 -9 -38 -23 -41 -30 -2 -7 -11 -10 -19
-7 -9 3 -14 -1 -14 -11 0 -9 -7 -19 -15 -22 -8 -4 -15 -14 -15 -23 0 -9 -16
-25 -35 -35 -19 -10 -37 -28 -41 -38 -3 -11 -8 -17 -11 -14 -7 6 -72 -60 -76
-77 -1 -6 -10 -18 -20 -25 -9 -7 -15 -17 -12 -22 3 -5 -3 -15 -14 -21 -10 -7
-17 -18 -15 -24 3 -6 -7 -24 -21 -39 -14 -16 -24 -30 -22 -33 7 -6 -78 -83
-91 -83 -6 0 -17 -8 -24 -19 -7 -10 -23 -21 -36 -25 -12 -4 -20 -12 -17 -17 4
-5 1 -9 -4 -9 -6 0 -11 -8 -11 -19 0 -10 -7 -24 -15 -31 -8 -7 -13 -16 -10
-20 3 -5 -4 -11 -14 -15 -35 -11 -71 -63 -65 -93 4 -21 -2 -35 -25 -61 -20
-23 -29 -41 -25 -53 3 -11 0 -18 -8 -18 -10 0 -10 -2 1 -9 11 -7 10 -11 -7
-22 -11 -7 -18 -19 -15 -26 3 -7 -1 -13 -8 -13 -7 0 -10 -3 -6 -6 3 -3 -5 -24
-19 -45 -13 -21 -23 -42 -22 -46 3 -15 -22 -63 -33 -63 -6 0 -9 -6 -6 -14 3
-8 -1 -20 -8 -26 -8 -7 -13 -16 -10 -20 3 -4 -2 -13 -10 -20 -8 -7 -15 -23
-15 -36 0 -12 -4 -25 -9 -29 -6 -3 -8 -14 -6 -25 2 -10 -3 -24 -11 -31 -8 -6
-14 -17 -14 -24 0 -7 -7 -18 -15 -25 -10 -8 -13 -20 -8 -34 4 -12 6 -45 5 -73
-1 -32 2 -53 8 -53 6 0 8 5 5 10 -3 6 -1 10 5 10 20 0 4 -120 -18 -142 -7 -7
-12 -18 -12 -25 0 -7 -5 -13 -11 -13 -13 0 -1 -41 15 -53 8 -6 8 -10 0 -13
-17 -7 -5 -44 12 -37 12 4 13 1 3 -21 -9 -20 -9 -29 1 -41 10 -12 10 -15 -1
-15 -9 0 -10 -3 -4 -8 9 -6 12 -27 5 -34 -8 -9 -8 -64 0 -73 6 -7 7 -15 3 -18
-3 -4 1 -7 11 -7 13 0 16 -5 11 -19 -3 -11 -2 -22 3 -25 5 -3 8 -17 7 -31 -2
-14 1 -25 6 -25 6 0 9 -24 7 -56 -3 -48 -1 -58 13 -61 15 -4 39 -46 44 -78 4
-25 25 -65 34 -65 6 0 16 -19 23 -41 7 -24 19 -44 29 -46 10 -3 15 -11 12 -19
-3 -8 0 -14 7 -14 6 0 9 -4 5 -9 -3 -5 5 -18 19 -28 13 -10 26 -29 30 -41 4
-12 12 -22 17 -22 5 0 9 -7 9 -16 0 -8 5 -12 10 -9 24 15 6 -10 -43 -61 -41
-41 -54 -60 -52 -81 1 -16 -3 -35 -8 -44 -6 -9 -7 -25 -2 -35 4 -11 9 -101 11
-201 4 -207 6 -233 17 -233 4 0 7 -19 7 -43 0 -24 3 -47 8 -51 6 -7 9 -47 15
-192 1 -26 6 -40 13 -37 6 2 10 -6 9 -19 -1 -13 2 -30 6 -38 15 -30 34 -85 31
-92 -1 -5 3 -8 8 -8 6 0 10 -11 10 -25 0 -14 4 -25 9 -25 4 0 7 -11 6 -25 -2
-14 1 -27 6 -31 5 -3 9 -14 9 -25 0 -10 5 -19 11 -19 5 0 8 -4 4 -9 -3 -5 -1
-12 5 -16 6 -4 8 -11 5 -16 -4 -5 -1 -9 4 -9 6 0 11 -7 11 -15 0 -9 7 -18 15
-21 8 -3 17 -14 20 -24 5 -17 59 -49 95 -57 8 -2 22 -5 30 -8 8 -2 27 -4 42
-4 21 -1 29 -8 39 -38 7 -21 11 -55 11 -75 -1 -21 3 -38 9 -38 6 0 9 -10 8
-22 -2 -13 2 -33 9 -45 7 -12 9 -29 6 -37 -3 -9 -2 -16 3 -16 5 0 10 -12 11
-27 5 -60 9 -82 19 -95 6 -7 11 -15 11 -18 0 -15 16 -68 26 -85 5 -11 11 -27
11 -35 0 -8 5 -22 10 -30 9 -15 15 -34 17 -57 1 -7 6 -13 11 -13 5 0 7 -6 4
-14 -3 -8 1 -17 10 -20 9 -4 13 -9 10 -12 -3 -4 0 -13 8 -21 8 -8 15 -23 15
-34 0 -11 9 -29 20 -41 10 -11 27 -37 36 -57 9 -20 30 -48 45 -64 16 -15 27
-27 24 -27 -4 0 35 -64 53 -85 5 -6 7 -16 4 -23 -2 -6 1 -12 7 -12 5 0 10 -8
11 -18 0 -9 3 -43 6 -75 3 -32 2 -65 -2 -75 -4 -9 -6 -20 -6 -24 1 -4 -7 -26
-19 -47 -11 -22 -22 -46 -23 -53 -1 -7 -17 -47 -36 -88 -19 -41 -35 -78 -35
-81 0 -4 -3 -11 -7 -15 -5 -4 -8 -16 -8 -26 0 -10 -4 -18 -8 -18 -5 0 -6 -14
-4 -31 3 -22 1 -30 -7 -25 -7 5 -11 -2 -11 -18 0 -14 -4 -26 -10 -26 -5 0 -7
-7 -4 -15 4 -8 1 -15 -5 -15 -7 0 -11 -6 -10 -12 4 -27 -42 -94 -55 -81 -3 3
-12 1 -19 -5 -8 -7 -17 -9 -20 -5 -4 3 -9 -1 -13 -10 -3 -9 -12 -13 -19 -11
-11 5 -58 -18 -75 -36 -10 -10 -145 -74 -152 -72 -5 1 -8 -3 -8 -10 0 -6 -3
-8 -6 -5 -4 4 -20 -3 -35 -14 -16 -11 -29 -17 -29 -12 0 4 -4 3 -8 -3 -14 -20
-79 -64 -85 -57 -4 3 -7 1 -7 -5 0 -6 -24 -22 -52 -36 -29 -15 -60 -30 -68
-35 -23 -15 -54 -24 -67 -22 -7 1 -13 -3 -13 -9 0 -5 -3 -9 -7 -8 -5 1 -28 -5
-53 -12 -25 -8 -47 -14 -50 -15 -3 0 -14 -6 -25 -12 -11 -6 -35 -14 -52 -18
-18 -3 -33 -11 -33 -16 0 -5 -14 -9 -31 -9 -20 0 -28 -4 -23 -12 4 -7 3 -8 -4
-4 -12 7 -50 -11 -69 -34 -7 -8 -13 -11 -13 -7 0 5 -13 -1 -30 -13 -16 -12
-30 -19 -30 -15 0 3 -16 -6 -35 -21 -19 -14 -35 -24 -35 -21 0 5 -34 -7 -135
-48 -11 -5 -24 -7 -29 -6 -4 1 -14 -4 -22 -10 -8 -7 -17 -9 -20 -6 -4 3 -15
-3 -27 -13 -12 -12 -30 -18 -44 -16 -12 3 -25 1 -28 -4 -3 -4 -21 -11 -40 -14
-19 -4 -35 -11 -35 -15 0 -5 -16 -12 -35 -15 -19 -4 -35 -11 -35 -16 0 -5 -9
-7 -20 -5 -11 2 -20 0 -20 -4 0 -7 -36 -22 -49 -20 -2 0 -7 -3 -10 -8 -8 -11
-63 -37 -73 -35 -5 1 -8 -2 -8 -8 0 -5 -6 -10 -12 -10 -7 -1 -28 -14 -47 -30
-19 -16 -38 -27 -43 -24 -4 3 -8 0 -8 -5 0 -6 -11 -11 -25 -11 -14 0 -25 -4
-25 -9 0 -6 -9 -8 -20 -6 -11 2 -20 0 -20 -4 0 -5 -12 -12 -28 -17 -33 -9 -33
-9 -52 -17 -46 -19 -76 -30 -88 -31 -7 -1 -16 -5 -20 -11 -12 -17 -52 -36 -62
-30 -6 4 -13 -1 -16 -9 -3 -9 -10 -14 -14 -11 -4 3 -11 -2 -14 -11 -3 -9 -13
-14 -21 -10 -8 3 -20 -3 -27 -12 -7 -10 -29 -25 -48 -33 -34 -14 -41 -15 -68
-18 -7 0 -11 -5 -8 -9 2 -4 -9 -14 -25 -21 l-29 -13 0 -1214 0 -1214 4220 0
4220 0 0 1264 0 1264 -30 7 c-16 4 -32 11 -35 16 -4 5 -14 9 -25 9 -10 0 -21
7 -24 16 -4 9 -9 14 -12 11 -4 -3 -23 5 -43 18 -19 14 -41 25 -48 25 -7 0 -13
5 -13 10 0 6 -3 9 -7 8 -11 -2 -66 24 -74 35 -3 5 -9 8 -13 8 -19 -2 -146 51
-146 62 0 5 -6 7 -12 4 -7 -2 -25 4 -40 15 -15 10 -30 18 -35 17 -17 -4 -129
46 -156 69 -9 8 -20 12 -24 9 -3 -4 -15 0 -25 10 -10 9 -18 12 -18 7 0 -5 -4
-3 -9 5 -9 13 -62 37 -108 48 -13 3 -23 9 -23 14 0 5 -3 8 -7 7 -5 -1 -19 3
-33 9 -28 13 -60 25 -75 29 -5 1 -29 9 -52 17 -22 9 -44 13 -46 10 -3 -3 -16
2 -29 11 -12 9 -35 16 -50 16 -16 0 -28 4 -28 8 0 5 -6 9 -12 10 -7 1 -32 5
-55 8 -24 3 -43 10 -43 16 0 5 -4 7 -9 3 -5 -3 -12 -1 -16 5 -4 6 -10 8 -15 5
-5 -3 -15 3 -22 13 -7 10 -28 24 -45 31 -18 7 -33 16 -33 20 0 4 -12 12 -27
19 -51 23 -73 37 -73 44 0 4 -7 5 -15 2 -8 -4 -15 -2 -15 4 0 5 -12 13 -26 16
-14 4 -35 16 -47 26 -14 13 -23 16 -28 9 -4 -7 -8 -5 -13 6 -3 9 -10 13 -16
10 -5 -3 -10 -1 -10 6 0 6 -8 9 -19 6 -12 -3 -22 1 -25 10 -3 8 -10 11 -16 8
-5 -3 -10 -2 -10 4 0 6 -16 13 -35 17 -19 3 -35 10 -35 15 0 5 -3 8 -7 7 -10
-2 -39 9 -80 29 -17 8 -36 12 -42 9 -6 -4 -11 -3 -11 2 0 12 -106 57 -124 53
-4 -1 -22 9 -40 22 -17 13 -41 27 -53 31 -13 4 -23 12 -23 17 0 6 -9 7 -20 4
-11 -3 -20 -2 -20 3 0 9 -50 37 -62 34 -5 -1 -8 3 -8 8 0 6 -7 10 -15 10 -19
0 -79 41 -114 79 -16 17 -36 31 -45 31 -10 0 -13 6 -10 15 4 8 1 22 -6 30 -7
8 -10 24 -7 35 3 11 1 23 -4 26 -5 3 -9 14 -9 25 0 10 -3 19 -8 19 -15 0 -68
138 -63 166 1 7 -5 14 -14 18 -8 3 -15 12 -15 21 0 8 -4 15 -9 15 -8 0 -34 53
-32 65 1 3 -5 18 -13 33 -8 15 -17 44 -19 62 -3 19 -6 35 -7 35 -1 0 -3 12 -4
27 -1 16 1 28 5 28 3 0 6 13 7 28 1 33 36 98 57 106 8 3 15 12 15 21 0 8 7 15
16 15 8 0 13 4 9 9 -3 5 1 15 8 23 8 7 12 18 10 24 -2 6 3 17 12 24 8 7 15 21
15 31 0 11 5 19 12 19 6 0 9 3 5 6 -3 3 6 29 21 57 14 29 27 59 29 67 1 8 6
16 11 18 6 2 8 12 5 22 -3 11 -1 20 5 20 11 0 25 37 22 58 0 8 3 19 8 25 5 7
8 20 7 30 -2 9 1 17 6 17 5 0 9 9 9 20 0 11 4 20 9 20 4 0 7 16 4 35 -2 22 1
35 8 35 6 0 9 9 6 20 -3 11 0 20 6 20 7 0 13 12 14 28 4 58 10 92 16 98 4 4 7
36 7 71 0 34 4 63 9 63 4 0 8 8 8 18 0 43 4 52 22 52 11 0 22 4 26 10 3 5 12
7 20 3 8 -3 15 0 15 5 0 6 9 14 20 17 11 3 20 12 20 20 0 7 7 16 16 19 8 3 13
10 9 15 -3 6 3 14 13 20 17 9 72 108 72 130 0 6 5 11 11 11 6 0 9 9 6 20 -3
11 -1 23 4 26 5 3 9 18 9 34 0 16 5 32 10 35 6 4 8 11 5 16 -4 5 -2 9 3 9 11
0 26 55 24 83 -1 9 3 17 8 17 6 0 10 11 10 24 0 14 4 27 9 30 4 3 6 17 3 31
-2 14 0 25 5 25 6 0 9 31 8 71 0 38 2 72 6 75 10 6 11 351 1 358 -5 3 -7 29
-5 58 2 29 6 90 9 135 5 73 4 85 -15 109 -12 15 -21 33 -21 40 0 7 -12 19 -26
27 l-26 14 33 32 c26 27 30 35 18 43 -11 8 -11 9 3 5 18 -6 66 29 55 40 -4 3
-2 12 5 20 6 8 13 26 14 40 2 15 10 31 19 35 8 5 15 20 15 32 0 13 7 26 15 30
8 3 15 12 15 21 0 8 4 15 8 15 4 0 8 8 9 18 3 31 11 66 24 112 7 25 13 48 13
52 1 4 8 15 16 25 8 10 14 33 13 51 -1 17 3 32 9 32 6 0 8 7 4 15 -3 8 -1 15
4 15 6 0 10 9 10 20 0 11 4 20 9 20 5 0 8 8 6 18 -1 9 0 21 3 27 4 5 8 30 10
55 2 25 7 47 11 50 14 10 1 287 -16 330 -4 8 -5 18 -5 23 1 4 -2 7 -7 7 -5 0
-12 16 -15 35 -4 19 -10 35 -15 35 -4 0 -8 6 -9 13 -3 41 -17 94 -29 105 -7 7
-13 22 -13 33 0 10 -4 19 -10 19 -5 0 -7 6 -4 14 3 8 -4 24 -15 35 -12 12 -18
21 -14 21 4 0 2 5 -4 11 -6 6 -9 17 -7 24 3 7 -5 20 -18 29 -13 9 -22 19 -21
21 1 3 0 11 -3 20 -3 8 -4 20 -2 27 3 7 -4 21 -14 32 -13 15 -15 23 -7 33 9
10 8 13 -2 13 -15 0 -54 73 -46 87 3 4 -1 14 -9 21 -8 7 -14 11 -14 8 0 -3
-11 6 -25 20 -14 14 -23 30 -20 35 4 5 1 9 -4 9 -6 0 -11 7 -11 15 0 8 -5 15
-12 15 -6 0 -8 3 -5 7 4 3 -3 17 -15 30 -12 13 -17 23 -12 23 5 0 -4 11 -19
24 -16 14 -26 30 -22 35 3 6 1 11 -5 11 -5 0 -19 15 -30 33 -11 17 -25 32 -32
32 -7 0 -14 10 -16 23 -2 12 -8 22 -13 22 -6 0 -7 -6 -3 -12 5 -9 2 -9 -9 1
-9 7 -17 19 -17 25 0 6 5 4 10 -4 5 -8 10 -10 10 -4 0 18 -38 47 -51 38 -9 -5
-10 -2 -6 9 5 14 -15 41 -55 73 -28 22 -98 64 -98 59 0 -3 -13 7 -28 22 -16
15 -26 32 -24 37 3 5 -2 7 -10 3 -9 -3 -26 1 -37 10 -12 8 -25 12 -28 9 -4 -3
-15 2 -25 11 -11 9 -26 18 -34 19 -8 1 -33 12 -54 23 -27 14 -40 17 -40 8 -1
-7 -6 -5 -14 6 -7 9 -18 17 -25 17 -6 0 -11 5 -11 11 0 5 -4 7 -10 4 -5 -3
-10 -2 -10 4 0 13 -158 13 -166 0 -6 -10 -36 0 -46 15 -8 11 -198 16 -198 5 0
-3 -11 -11 -25 -17 -14 -6 -25 -8 -25 -4 0 14 -51 12 -65 -2 -14 -14 -62 -15
-83 -2 -6 3 -13 20 -17 36 -4 17 -13 30 -21 30 -8 0 -14 5 -14 10 0 6 -6 10
-14 10 -8 0 -17 12 -21 27 -3 15 -11 31 -16 34 -6 3 -12 19 -13 35 -2 16 -9
28 -16 26 -6 -1 -14 7 -17 18 -3 11 -11 20 -17 20 -7 0 -27 16 -46 35 -19 19
-39 34 -45 32 -12 -4 -35 17 -35 32 0 6 -9 11 -20 11 -11 0 -20 7 -20 15 0 8
-3 14 -7 13 -10 -2 -43 11 -63 23 -8 5 -27 15 -42 22 -16 6 -28 14 -28 17 0 3
-20 5 -45 5 -25 -1 -48 2 -51 7 -3 4 -19 8 -35 8 -16 0 -41 7 -54 16 -24 16
-51 11 -40 -7 9 -14 -37 -10 -65 7 -21 12 -22 14 -5 12 25 -4 27 25 3 30 -10
2 -18 -1 -18 -7 0 -14 -100 -12 -106 3 -2 6 -18 13 -35 14 -19 2 -28 -1 -24
-8z m-345 -80 c0 -5 -4 -10 -10 -10 -5 0 -10 5 -10 10 0 6 5 10 10 10 6 0 10
-4 10 -10z m1095 -261 c11 -16 1 -19 -13 -3 -7 8 -8 14 -3 14 5 0 13 -5 16
-11z m245 -214 c0 -9 -6 -12 -15 -9 -8 4 -12 10 -9 15 8 14 24 10 24 -6z"/>
<path d="M4944 9903 c11 -11 45 -13 51 -3 4 6 -7 10 -26 10 -18 0 -29 -3 -25
-7z"/>
<path d="M7110 9400 c-13 -8 -12 -10 3 -10 9 0 17 5 17 10 0 12 -1 12 -20 0z"/>
<path d="M7530 9099 c0 -5 5 -7 10 -4 6 3 10 8 10 11 0 2 -4 4 -10 4 -5 0 -10
-5 -10 -11z"/>
<path d="M3582 8985 c-7 -8 -9 -15 -4 -15 5 0 15 7 22 15 16 19 -1 19 -18 0z"/>
</g>
</svg>
