<?xml version="1.0" standalone="no"?>
<!DOCTYPE svg PUBLIC "-//W3C//DTD SVG 20010904//EN"
 "http://www.w3.org/TR/2001/REC-SVG-20010904/DTD/svg10.dtd">
<svg version="1.0" xmlns="http://www.w3.org/2000/svg"
 width="794.000000pt" height="794.000000pt" viewBox="0 0 794.000000 794.000000"
 preserveAspectRatio="xMidYMid meet">
<metadata>
Created by potrace 1.14, written by Peter Selinger 2001-2017
</metadata>
<g transform="translate(0.000000,794.000000) scale(0.100000,-0.100000)"
fill="#000000" stroke="none">
<path d="M765 7925 c-127 -32 -238 -82 -345 -155 -64 -43 -188 -160 -222 -210
-10 -14 -30 -43 -46 -65 -34 -49 -82 -148 -114 -235 l-23 -65 0 -3210 c0
-3131 0 -3211 19 -3270 22 -68 95 -220 128 -267 143 -200 350 -347 568 -403
36 -9 76 -20 90 -23 14 -3 1416 -7 3115 -8 3320 -2 3154 -5 3308 47 310 104
549 350 643 661 13 46 28 103 32 128 9 58 9 6189 0 6251 -12 84 -40 177 -79
264 -28 63 -118 205 -130 205 -5 0 -9 6 -9 14 0 20 -133 141 -215 195 -107 71
-171 100 -315 142 -63 18 -163 18 -3210 18 -2506 -1 -3155 -4 -3195 -14z"/>
</g>
</svg>
